Coordinates
version=1
nRows=18
nColumns=22
inDegrees=yes

Units are S.I. units (second, meters, Newtons, ...)
If the header above contains a line with 'inDegrees', this indicates whether rotational values are in degrees (yes) or radians (no).

endheader
time	pelvis_tilt	pelvis_list	pelvis_rotation	pelvis_tx	pelvis_ty	pelvis_tz	hip_flexion_r	hip_adduction_r	hip_rotation_r	knee_angle_r	ankle_angle_r	subtalar_angle_r	hip_flexion_l	hip_adduction_l	hip_rotation_l	knee_angle_l	ankle_angle_l	subtalar_angle_l	lumbar_extension	lumbar_bending	lumbar_rotation
      0.01000000	      0.31712584	     -3.85747303	     -4.72333570	     -1.43025312	      1.02543760	     -0.19097630	      0.76210009	      7.07924360	     -2.48152649	     -9.46568869	      8.23849720	     -2.51990242	      0.36606473	     -4.19966830	     -6.96731537	    -10.77370530	     11.62246065	     -1.68793007	     -9.38795588	      3.83162083	      4.48101232
      0.02000000	      0.31939443	     -3.86025509	     -4.72793507	     -1.43024163	      1.02543898	     -0.19094271	      0.75930000	      7.08353833	     -2.48470547	     -9.46635381	      8.23629467	     -2.52016263	      0.36377909	     -4.20447178	     -6.96663632	    -10.77843169	     11.62291940	     -1.68826890	     -9.38159889	      3.82542848	      4.48063481
      0.03000000	      0.32173651	     -3.86379803	     -4.73424508	     -1.43022869	      1.02543950	     -0.19089939	      0.75610802	      7.08868549	     -2.49017153	     -9.46683814	      8.23383499	     -2.52043825	      0.36148873	     -4.21069230	     -6.96687108	    -10.78436811	     11.62399935	     -1.68861027	     -9.37431708	      3.81837240	      4.48250202
      0.04000000	      0.32168193	     -3.87730701	     -4.74342889	     -1.43021866	      1.02543601	     -0.19085662	      0.75319743	      7.10335666	     -2.52463314	     -9.46077366	      8.21850791	     -2.52307988	      0.36701228	     -4.22944556	     -6.98778547	    -10.80211014	     11.63842096	     -1.69040584	     -9.36686225	      3.82251800	      4.51508725
      0.05000000	      0.32488008	     -3.88059070	     -4.74858112	     -1.43020185	      1.02543562	     -0.19082148	      0.75027824	      7.10757253	     -2.52617739	     -9.46485978	      8.21706617	     -2.52335222	      0.36383269	     -4.23456215	     -6.98820045	    -10.80761235	     11.63994715	     -1.69046432	     -9.35851595	      3.81662923	      4.51419996
      0.06000000	      0.32745375	     -3.88417080	     -4.75417550	     -1.43018618	      1.02543259	     -0.19078889	      0.74756355	      7.11188262	     -2.52935079	     -9.46767009	      8.21608378	     -2.52370469	      0.36163727	     -4.23997579	     -6.98952856	    -10.81310691	     11.64231824	     -1.69052004	     -9.35127108	      3.81100198	      4.51559194
      0.07000000	      0.33026583	     -3.88758215	     -4.75696142	     -1.43016390	      1.02542770	     -0.19077478	      0.74447432	      7.11534514	     -2.53229492	     -9.47065565	      8.21564167	     -2.52426192	      0.35953125	     -4.24397253	     -6.99217554	    -10.81904743	     11.64587535	     -1.69061230	     -9.34347428	      3.80784102	      4.51953297
      0.08000000	      0.33312857	     -3.89015745	     -4.75655645	     -1.43013708	      1.02542071	     -0.19078231	      0.74099948	      7.11707769	     -2.53310531	     -9.47368531	      8.21611173	     -2.52503773	      0.35787770	     -4.24608534	     -6.99518822	    -10.82470052	     11.65029396	     -1.69078503	     -9.33637716	      3.80692853	      4.52445695
      0.09000000	      0.33588101	     -3.89162574	     -4.75400559	     -1.43010858	      1.02541307	     -0.19080430	      0.73737082	      7.11748194	     -2.53094131	     -9.47630471	      8.21734245	     -2.52584078	      0.35652612	     -4.24596137	     -6.99709414	    -10.82955967	     11.65434918	     -1.69103351	     -9.33068879	      3.80672127	      4.52817966
      0.10000000	      0.33904227	     -3.89216552	     -4.74933250	     -1.43007460	      1.02540509	     -0.19083696	      0.73287681	      7.11655100	     -2.52566499	     -9.47870133	      8.21926364	     -2.52672814	      0.35473007	     -4.24464501	     -6.99781787	    -10.83498297	     11.65839360	     -1.69139927	     -9.32487257	      3.80635779	      4.53112216
      0.11000000	      0.34634723	     -3.88670839	     -4.74480529	     -1.43006416	      1.02539800	     -0.19086529	      0.71618690	      7.11084906	     -2.48550321	     -9.46436194	      8.23785207	     -2.53316464	      0.35838991	     -4.23754549	     -6.99306474	    -10.85739237	     11.68490051	     -1.69445072	     -9.33033761	      3.79600965	      4.53593512
      0.12000000	      0.34885739	     -3.88727052	     -4.74031903	     -1.43002939	      1.02539234	     -0.19089792	      0.71222042	      7.11015927	     -2.48153908	     -9.46659541	      8.23825137	     -2.53370288	      0.35546233	     -4.23615432	     -6.99325945	    -10.85961675	     11.68558496	     -1.69473179	     -9.32448442	      3.79614462	      4.53668759
      0.13000000	      0.35576568	     -3.88321916	     -4.73303085	     -1.43000697	      1.02539446	     -0.19092534	      0.69062922	      7.10583726	     -2.44857032	     -9.44318652	      8.24678947	     -2.53819860	      0.35354226	     -4.23042965	     -6.98098729	    -10.87114683	     11.69283154	     -1.69786048	     -9.32706035	      3.78786465	      4.53522062
      0.14000000	      0.35781396	     -3.88413503	     -4.72844317	     -1.42998670	      1.02539181	     -0.19094842	      0.68705104	      7.10617492	     -2.44621780	     -9.44358647	      8.24659119	     -2.53850229	      0.35161802	     -4.23009780	     -6.98042097	    -10.87250605	     11.69291657	     -1.69818200	     -9.32355993	      3.78669588	      4.53634970
      0.15000000	      0.36360524	     -3.88497875	     -4.71780432	     -1.42997425	      1.02539654	     -0.19097196	      0.66532239	      7.10683884	     -2.43622716	     -9.41556356	      8.24781888	     -2.54044388	      0.35076530	     -4.23041618	     -6.96431675	    -10.88170914	     11.69469887	     -1.70057795	     -9.32699915	      3.78297447	      4.54045998
      0.16000000	      0.36386687	     -3.88611182	     -4.71741949	     -1.42997621	      1.02539369	     -0.19098920	      0.66490874	      7.10679280	     -2.43620692	     -9.41556824	      8.24775289	     -2.54046679	      0.35073324	     -4.23031886	     -6.96421309	    -10.88165486	     11.69472118	     -1.70060265	     -9.32669034	      3.78242127	      4.54047259
      0.17000000	      0.38065551	     -3.90252392	     -4.68874824	     -1.42995375	      1.02541823	     -0.19102390	      0.62912325	      7.12351401	     -2.46583227	     -9.38529243	      8.23187036	     -2.54525130	      0.33283259	     -4.24635748	     -6.92625161	    -10.87874423	     11.70225805	     -1.70372078	     -9.34121529	      3.79622788	      4.52560474
      0.18000000	      0.38050023	     -3.90440554	     -4.68647999	     -1.42997161	      1.02541664	     -0.19101768	      0.62860289	      7.12566953	     -2.46997220	     -9.38336084	      8.23208364	     -2.54545684	      0.33389605	     -4.24953917	     -6.92620517	    -10.87680878	     11.70221785	     -1.70380428	     -9.34233247	      3.79114084	      4.52866482
